<svg id="Capa_1" data-name="Capa 1" xmlns="http://www.w3.org/2000/svg" viewBox="0 0 1706.11 1498.17"><defs><style>.cls-1{fill:#1a1a1a;}</style></defs><title>Logo</title><path class="cls-1" d="M105.37,1643.26c0-38.7,32.31-71.18,70.92-71.18,17.81.26,34.26,7.84,47.73,21l-12.53,17c-9.63-9.63-22.16-16-35.63-16-24.89,0-48.67,21.82-48.67,49.35,0,27.7,24.12,49.1,48.76,49.1,14.06,0,26.17-7,35.63-16.37L224,1693.46c-11.85,11.68-26.93,20.63-47.39,20.63C137.68,1714.09,105.37,1682,105.37,1643.26Z" transform="translate(-105.37 -216)"/><path class="cls-1" d="M228.71,1643.34c0-39.21,31.88-71.26,71-71.26s71.09,32.05,71.09,71.26c0,38.87-32.05,70.75-71.17,70.75S228.71,1682.21,228.71,1643.34Zm120.27-.17a49.27,49.27,0,1,0-49.35,49.1C326.73,1692.27,349,1670.19,349,1643.17Z" transform="translate(-105.37 -216)"/><path class="cls-1" d="M525.17,1571.49v140.38H503.6v-76.2l-45.6,73.9h-.17l-45.69-74v76.29H390.58V1571.49h1.62l65.71,99.89,65.64-99.89Z" transform="translate(-105.37 -216)"/><path class="cls-1" d="M551.59,1574.47h21.56v137.4H551.59Z" transform="translate(-105.37 -216)"/><path class="cls-1" d="M709.53,1643.34c0,42.19-27.19,68.53-70.83,68.53H599.58v-137.4H638.7C682.34,1574.38,709.53,1600.81,709.53,1643.34Zm-21.82-.08c0-29.16-18.92-47.4-49.09-47.4H621.06v94.53h17.81C668.88,1690.39,687.71,1672.24,687.71,1643.26Z" transform="translate(-105.37 -216)"/><path class="cls-1" d="M803.21,1691h-65l-9.37,20.88H705.44l64.61-140.21h1.28l64.61,140.21H812.59Zm-8.35-18.5-24.13-53.7-24.2,53.7Z" transform="translate(-105.37 -216)"/><path class="cls-1" d="M839,1687.75l17-12.19c6.13,10.74,17.56,16.88,30.77,16.88,15.43,0,27.1-7.42,27.1-17.9,0-12.7-18.07-20.37-34.09-27.28-16.11-7.16-34-15.51-34-37.08,0-22.5,19.52-38.18,44.24-38.18,19.6,0,34.26,9.46,39.89,24.55l-16,11.08c-4.26-9.29-13.72-14.49-23.69-14.49-12.62,0-22.68,7.84-22.68,17.56,0,10.74,12.71,14.57,29.41,21.73,21.74,9.55,38.61,20,38.61,41.68,0,24.38-21.13,40.06-49,40.06C864,1714.17,846.85,1703.6,839,1687.75Z" transform="translate(-105.37 -216)"/><path class="cls-1" d="M998.66,1643.26c0-38.7,32.3-71.18,70.92-71.18,17.81.26,34.26,7.84,47.73,21l-12.53,17c-9.63-9.63-22.16-16-35.63-16-24.89,0-48.67,21.82-48.67,49.35,0,27.7,24.12,49.1,48.76,49.1,14.06,0,26.16-7,35.63-16.37l12.44,17.39c-11.85,11.68-26.93,20.63-47.39,20.63C1031,1714.09,998.66,1682,998.66,1643.26Z" transform="translate(-105.37 -216)"/><path class="cls-1" d="M1221,1691h-65l-9.37,20.88h-23.36l64.61-140.21h1.28l64.61,140.21h-23.35Zm-8.35-18.5-24.13-53.7-24.2,53.7Z" transform="translate(-105.37 -216)"/><path class="cls-1" d="M1256.76,1687.75l17-12.19c6.13,10.74,17.56,16.88,30.77,16.88,15.42,0,27.1-7.42,27.1-17.9,0-12.7-18.07-20.37-34.09-27.28-16.11-7.16-34-15.51-34-37.08,0-22.5,19.52-38.18,44.24-38.18,19.6,0,34.26,9.46,39.89,24.55l-16,11.08c-4.26-9.29-13.72-14.49-23.69-14.49-12.62,0-22.68,7.84-22.68,17.56,0,10.74,12.7,14.57,29.41,21.73,21.74,9.55,38.61,20,38.61,41.68,0,24.38-21.14,40.06-49,40.06C1281.73,1714.17,1264.6,1703.6,1256.76,1687.75Z" transform="translate(-105.37 -216)"/><path class="cls-1" d="M1393.39,1595.69v35.21h52v21.48h-52v38h60.27v21.48h-81.83v-137.4h81.83v21.22Z" transform="translate(-105.37 -216)"/><path class="cls-1" d="M1551.59,1711.87l-37-53.19h-16.88v53.19h-21.56l-.09-137.4h42.71c25.57,0,46.54,19.69,46.54,44.15,0,17.73-11.42,33.16-27.19,38.27l40,55Zm-32.3-71.09c13,.09,23.78-10.39,23.78-22.67,0-12.78-11-22.25-23.78-22.25h-21.65v44.92Z" transform="translate(-105.37 -216)"/><path class="cls-1" d="M1679.11,1691h-65l-9.37,20.88h-23.36L1646,1571.66h1.28l64.61,140.21h-23.35Zm-8.35-18.5-24.13-53.7-24.2,53.7Z" transform="translate(-105.37 -216)"/><path class="cls-1" d="M1714.91,1687.75l17-12.19c6.13,10.74,17.56,16.88,30.77,16.88,15.43,0,27.1-7.42,27.1-17.9,0-12.7-18.07-20.37-34.09-27.28-16.11-7.16-34-15.51-34-37.08,0-22.5,19.52-38.18,44.24-38.18,19.6,0,34.26,9.46,39.89,24.55l-16,11.08c-4.26-9.29-13.72-14.49-23.69-14.49-12.62,0-22.68,7.84-22.68,17.56,0,10.74,12.7,14.57,29.41,21.73,21.74,9.55,38.61,20,38.61,41.68,0,24.38-21.14,40.06-49,40.06C1739.88,1714.17,1722.75,1703.6,1714.91,1687.75Z" transform="translate(-105.37 -216)"/><path class="cls-1" d="M589.36,1372.86c0,39.52-33.17,76.25-83.22,76.25H399.51V1199.29h82.14c45.25,0,78.42,30.53,78.42,64.94,0,25.72-17.05,44.16-27.28,44.16C559.45,1308.39,589.36,1335.2,589.36,1372.86ZM479.64,1256.94H463.36v39.21h15.81c14.41,0,25.26-7.13,25.26-20C504.43,1264.07,493.89,1256.94,479.64,1256.94Zm46.18,108c0-14.57-10.54-23.4-29.29-23.4l-33.17-.16v47.43h32.7C511.25,1388.83,525.82,1381.39,525.82,1365Z" transform="translate(-105.37 -216)"/><path class="cls-1" d="M683.12,1261v34.87h79.35v55.33H683.12V1387h96.4v62.14h-162V1199.29h162V1261Z" transform="translate(-105.37 -216)"/><path class="cls-1" d="M805.55,1324.2c0-73.92,59.82-130.8,137.62-130.8,32.24.47,66.8,14.57,92.37,37.82l-38.13,49c-15.34-14-35.64-23.09-54.08-23.09-38.44,0-70.52,29.29-70.52,67.57,0,38.74,33.48,67.26,69.12,67.26,20.92,0,39.68-9.92,55.79-24.33l37.82,50.36c-23.87,21.7-55.64,36.73-93.61,36.73C871.42,1454.69,805.55,1402.62,805.55,1324.2Z" transform="translate(-105.37 -216)"/><path class="cls-1" d="M1270.48,1199.29v249.82h-66.17V1355h-74.24v94.07h-66.33V1199.29h66.33v93.76h74.24v-93.76Z" transform="translate(-105.37 -216)"/><path class="cls-1" d="M1311.71,1358.3v-159h66.79v158.85c0,20.77,17.82,34.56,36.73,34.56,18.75,0,37-14.1,37-34.56V1199.29h66.8v159c0,57.34-46.5,97.79-103.68,97.79S1311.71,1415.64,1311.71,1358.3Z" transform="translate(-105.37 -216)"/><path class="cls-1" d="M751.55,323.59a.2.2,0,0,1,0,.08h.09Z" transform="translate(-105.37 -216)"/><path class="cls-1" d="M638.18,1029.3l-50.92,48.21h740.25l-50.92-48.21a191.25,191.25,0,0,1-58.53-164.49l1.44-11-6.47-9c-25.77-35.72-57.34-94.78-61.42-173.14a324.35,324.35,0,0,1,17.71-122.91,111.28,111.28,0,0,0,22.44,1.47c30.27-1.11,61.42-15.36,85.46-39.11,24.44-24.14,39.18-55,41.53-86.91,1.27-17.33.48-61.36-34.2-95.91-24.23-24.14-52.75-31.79-73.12-33.85a126.21,126.21,0,0,0-6.26-13.24l-.33-1-1.75-2.62a117.31,117.31,0,0,0-10.52-15c-16.71-20.29-40-34.76-67.24-41.85a151.18,151.18,0,0,0-74.44-.21,136.89,136.89,0,0,0-18.25,6c-26.5,10.9-45.28,28.29-57.05,42.21H939.18c-11.77-13.92-30.55-31.31-57-42.21a136.89,136.89,0,0,0-18.25-6,151.18,151.18,0,0,0-74.44.21c-27.28,7.09-50.53,21.56-67.24,41.85a118.39,118.39,0,0,0-10.53,15l-1.74,2.62-.33,1a124.24,124.24,0,0,0-6.26,13.24c-20.37,2.06-48.89,9.71-73.12,33.85-34.68,34.55-35.47,78.58-34.2,95.91,2.34,31.9,17.09,62.77,41.53,86.91,24,23.75,55.19,38,85.46,39.11a111.13,111.13,0,0,0,22.43-1.47,324.35,324.35,0,0,1,17.72,122.91c-4.08,78.36-35.65,137.42-61.42,173.14l-6.47,9,1.44,11a191.25,191.25,0,0,1-58.53,164.49Zm525-705.71s0,.05,0,.08h-.09Zm-411.66,0,.05.08h-.09A.2.2,0,0,0,751.55,323.59Zm-.49,165.63a59.59,59.59,0,0,1-26,5.24c-35.62-1.3-70.56-36.71-73.32-74.28-.72-9.65-.38-34,17.92-52.28a62.52,62.52,0,0,1,32.1-16.77h0a134.7,134.7,0,0,0,12,27.4,117.56,117.56,0,0,0,18.11,23.79l2.67,2.59c.87.87,1.84,1.65,2.74,2.47,1.81,1.67,3.78,3.16,5.68,4.69,1,.76,2,1.44,2.95,2.15s2,1.45,3,2.07c2.05,1.3,4.05,2.63,6.16,3.77l3.11,1.75,3.19,1.6,1.6.78,1.62.73,3.25,1.41a110.61,110.61,0,0,0,13.33,4.41,106.24,106.24,0,0,0,13.57,2.58,109.26,109.26,0,0,0,39.58-2.61A115.51,115.51,0,0,0,846.58,427a90.33,90.33,0,0,0,11.59-5.11,106.8,106.8,0,0,1-48.23-1.65,83,83,0,0,1-38.2-22.52c-1.3-1.24-2.43-2.63-3.6-3.95-.6-.65-1.11-1.38-1.67-2.06s-1.09-1.37-1.6-2.1c-1-1.44-2-2.82-2.9-4.31-.47-.75-1-1.45-1.35-2.21l-1.27-2.24a79,79,0,0,1-7.18-18.95,90.21,90.21,0,0,1-2.46-20c0-2.41,0-4.84.18-7.22a.06.06,0,0,1,0,0l1.43-6.72a71.94,71.94,0,0,1,8.11-21.33l.22-.38a63.17,63.17,0,0,1,5.65-8.07C786.42,272.46,824,268,850,274.65a81.39,81.39,0,0,1,10.87,3.6c21.74,8.94,35.39,25.35,41.58,34.33l8.31,12.08H1004l8.32-12.08c6.19-9,19.84-25.39,41.58-34.33a81.39,81.39,0,0,1,10.87-3.6c26-6.68,63.59-2.19,84.69,23.46a61.22,61.22,0,0,1,5.65,8.07l.23.38a71.94,71.94,0,0,1,8.11,21.33l1.42,6.72a0,0,0,0,1,0,0c.14,2.38.19,4.81.17,7.22a89.63,89.63,0,0,1-2.46,20,79.38,79.38,0,0,1-7.17,18.95l-1.27,2.24c-.39.76-.89,1.46-1.35,2.21-.87,1.49-1.92,2.87-2.9,4.31-.51.73-1.08,1.38-1.6,2.1s-1.07,1.41-1.67,2.06c-1.17,1.32-2.3,2.71-3.6,3.95a83,83,0,0,1-38.2,22.52,106.81,106.81,0,0,1-48.23,1.65,90.33,90.33,0,0,0,11.59,5.11,114.8,114.8,0,0,0,12.28,3.76,109.26,109.26,0,0,0,39.58,2.61,106.57,106.57,0,0,0,13.57-2.58,111.19,111.19,0,0,0,13.33-4.41l3.25-1.41,1.62-.73,1.6-.78,3.19-1.6,3.11-1.75c2.11-1.14,4.11-2.47,6.16-3.77,1-.62,2-1.37,3-2.07s2-1.39,3-2.15c1.91-1.53,3.88-3,5.69-4.69.9-.82,1.87-1.6,2.74-2.47l2.67-2.59a117.52,117.52,0,0,0,18.1-23.79,134.18,134.18,0,0,0,12-27.4h0a62.55,62.55,0,0,1,32.1,16.77c18.3,18.24,18.63,42.63,17.92,52.28-2.76,37.57-37.71,73-73.32,74.28a59.59,59.59,0,0,1-26-5.24l-25.59-11.06L1127,503.71a381.23,381.23,0,0,0-31.16,170.9,376.88,376.88,0,0,0,44.29,158.65H774.63a376.88,376.88,0,0,0,44.29-158.65,381.1,381.1,0,0,0-31.17-170.9l-11.11-25.55Zm-8.22,474.92a247.83,247.83,0,0,0,11.32-75h406.45a245.63,245.63,0,0,0,38,132.54H716.17A245.81,245.81,0,0,0,742.84,964.14Z" transform="translate(-105.37 -216)"/><path class="cls-1" d="M751.6,323.67h-.09a.2.2,0,0,0,0-.08Z" transform="translate(-105.37 -216)"/><circle class="cls-1" cx="788.06" cy="739.76" r="31.64"/><circle class="cls-1" cx="685.67" cy="739.38" r="19.36"/><path class="cls-1" d="M1163.21,323.59l0,.08h.09S1163.23,323.61,1163.21,323.59Z" transform="translate(-105.37 -216)"/><path class="cls-1" d="M1163.26,323.67h-.09l0-.08S1163.23,323.64,1163.26,323.67Z" transform="translate(-105.37 -216)"/><circle class="cls-1" cx="915.97" cy="739.76" r="31.64"/><circle class="cls-1" cx="1018.36" cy="739.38" r="19.36"/></svg>